<svg xmlns="http://www.w3.org/2000/svg" viewBox="0 0 1920.39 1080.72"><defs><style>.cls-1{fill:#fff;}.cls-2{fill:none;stroke:#ef3b2d;stroke-miterlimit:10;stroke-width:40px;}.cls-3{fill:#ef3b2d;}</style></defs><title>123123</title><g id="Слой_2" data-name="Слой 2"><rect class="cls-1" x="0.39" width="1920" height="1080"/><path class="cls-2" d="M600,0V1080M420,180h900V0M420,360H915a45,45,0,0,1,45,45V675a45,45,0,0,0,45,45h495M960,1080V945a45,45,0,0,1,45-45H915a45,45,0,0,1-45-45V495a45,45,0,0,0-45-45H735a45,45,0,0,0-45,45h0a45,45,0,0,1-45,45H420m900,540V855a45,45,0,0,0-45-45H735a45,45,0,0,1-45-45h0a45,45,0,0,0-45-45H420m360,360V945a45,45,0,0,0-45-45H420M780,0V495a45,45,0,0,0,45,45h360a45,45,0,0,0,45-45V405a45,45,0,0,1,45-45h225m-360,720V675a45,45,0,0,0-45-45h0a45,45,0,0,1-45-45V305.21a45,45,0,0,0-45-45h0a45,45,0,0,1-45-45V0m180,0V405a45,45,0,0,0,45,45h90a45,45,0,0,1,45,45h0a45,45,0,0,0,45,45h135M1644.57,0V1080m-180-900H1920M1464.57,360H1920M0,360H455.43M1920,450H1779.57a45,45,0,0,0-45,45h0a45,45,0,0,1-45,45h-225M1920,810l-140.43,0a45,45,0,0,1-45-45h0a45,45,0,0,0-45-45h-225m360,360V945a45,45,0,0,0-45-45h-315m360-900V448.18M240.43,0V1080m180-900H0M420.43,360m0,180h-225a45,45,0,0,1-45-45h0a45,45,0,0,0-45-45s-60-1.82-105.43-1.82M420.43,720H195.71c-75.82,8.64-16.56,85.45-91.27,90H0m420.43,90c-424.35,7.49-353.17-50-360,180m0-631.82C60.49,324.64,60.45,0,60.45,0" transform="translate(0 0.13)"/></g><g id="Слой_1" data-name="Слой 1"><rect class="cls-1" x="420.43" y="303.57" width="1079.13" height="467.53" rx="104.39"/><rect class="cls-3" x="465.38" y="410.77" width="105" height="46" rx="5.2"/><rect class="cls-3" x="627.38" y="410.77" width="105" height="46" rx="5.2"/><rect class="cls-3" x="576.38" y="591.77" width="46" height="105" rx="5.2"/><path class="cls-3" d="M487.43,477.64h60.95a2,2,0,0,1,2,2v94s-.8,12,3.31,16.66a6.54,6.54,0,0,1,1.69,4.3v75.11a2.32,2.32,0,0,1-3.47,2c-14.24-8.2-67.4-42.39-66.53-96.09.86-53.43.24-87.55.05-96A2,2,0,0,1,487.43,477.64Z" transform="translate(0 0.13)"/><path class="cls-3" d="M712.33,477.64h-61a2,2,0,0,0-2,2v94s.8,12-3.31,16.66a6.54,6.54,0,0,0-1.69,4.3v75.11a2.32,2.32,0,0,0,3.47,2c14.24-8.2,67.4-42.39,66.53-96.09-.86-53.43-.24-87.55,0-96A2,2,0,0,0,712.33,477.64Z" transform="translate(0 0.13)"/><rect class="cls-3" x="796.55" y="650.77" width="105" height="46" rx="5.2"/><rect class="cls-3" x="796.55" y="431.77" width="105" height="46" rx="5.2"/><rect class="cls-3" x="775.51" y="528.68" width="147.09" height="63" transform="translate(1409.23 -288.74) rotate(90)"/><rect class="cls-3" x="845.55" y="520.77" width="86" height="54"/><path class="cls-3" d="M926.42,390.43v63c42,0,42,66.41,0,66.41H880.55v63h45.87C1052.42,582.84,1052.42,390.43,926.42,390.43Z" transform="translate(0 0.13)"/><rect class="cls-3" x="1090.82" y="650.77" width="105" height="46" rx="5.2"/><rect class="cls-3" x="1090.82" y="485.73" width="105" height="46" rx="5.2"/><rect class="cls-3" x="1100.71" y="559.62" width="85.21" height="63" transform="translate(1734.43 -552.07) rotate(90)"/><rect class="cls-3" x="1238.02" y="505.7" width="69.39" height="63" transform="translate(1809.92 -735.39) rotate(90)"/><path class="cls-3" d="M1111.82,474.77h63c0-42,66.4-42,66.4,0v45.87h63V474.77C1304.22,348.77,1111.82,348.77,1111.82,474.77Z" transform="translate(0 0.13)"/><rect class="cls-3" x="1349.62" y="380.11" width="105" height="46" rx="5.2"/><rect class="cls-3" x="1349.62" y="548.65" width="105" height="46" rx="5.2"/><rect class="cls-3" x="1359.98" y="455.75" width="84.27" height="63" transform="translate(914.87 1889.5) rotate(-90)"/><rect class="cls-3" x="1238.02" y="493.45" width="69.39" height="63" transform="translate(747.77 1797.8) rotate(-90)"/><path class="cls-3" d="M1433.62,605.52h-63c0,42-66.4,42-66.4,0V559.65h-63v45.87C1241.22,731.52,1433.62,731.52,1433.62,605.52Z" transform="translate(0 0.13)"/></g></svg>