<svg xmlns="http://www.w3.org/2000/svg" viewBox="0 0 989.24 320.03"><defs><style>.cls-1{fill:#ef3b2d;}</style></defs><title>Ресурс 1</title><g id="Слой_2" data-name="Слой 2"><g id="Слой_1-2" data-name="Слой 1"><rect class="cls-1" y="30.65" width="105" height="46" rx="5.2"/><rect class="cls-1" x="162" y="30.65" width="105" height="46" rx="5.2"/><rect class="cls-1" x="111" y="211.65" width="46" height="105" rx="5.2"/><path class="cls-1" d="M22.05,97.65H83a2,2,0,0,1,2,2v94s-.8,12,3.31,16.66a6.58,6.58,0,0,1,1.69,4.3v75.11a2.32,2.32,0,0,1-3.47,2c-14.24-8.19-67.4-42.38-66.53-96.09.86-53.42.24-87.54.05-96A2,2,0,0,1,22.05,97.65Z"/><path class="cls-1" d="M247,97.65H186a2,2,0,0,0-2,2v94s.8,12-3.31,16.66a6.58,6.58,0,0,0-1.69,4.3v75.11a2.32,2.32,0,0,0,3.47,2c14.24-8.19,67.4-42.38,66.53-96.09-.86-53.42-.24-87.54-.05-96A2,2,0,0,0,247,97.65Z"/><rect class="cls-1" x="331.17" y="270.65" width="105" height="46" rx="5.2"/><rect class="cls-1" x="331.17" y="51.65" width="105" height="46" rx="5.2"/><rect class="cls-1" x="310.13" y="148.7" width="147.09" height="63" transform="translate(563.87 -203.48) rotate(90)"/><rect class="cls-1" x="380.17" y="140.65" width="86" height="54"/><path class="cls-1" d="M461,10.45v63c42,0,42,66.4,0,66.4H415.17v63H461C587,202.85,587,10.45,461,10.45Z"/><rect class="cls-1" x="625.43" y="270.65" width="105" height="46" rx="5.2"/><rect class="cls-1" x="625.43" y="105.62" width="105" height="46" rx="5.2"/><rect class="cls-1" x="635.33" y="179.64" width="85.21" height="63" transform="translate(889.07 -466.8) rotate(90)"/><rect class="cls-1" x="772.64" y="125.72" width="69.39" height="63" transform="translate(964.55 -650.12) rotate(90)"/><path class="cls-1" d="M646.43,94.78h63c0-42,66.41-42,66.41,0v45.87h63V94.78C838.84-31.22,646.43-31.22,646.43,94.78Z"/><rect class="cls-1" x="884.24" width="105" height="46" rx="5.2"/><rect class="cls-1" x="884.24" y="168.53" width="105" height="46" rx="5.2"/><rect class="cls-1" x="894.6" y="75.77" width="84.27" height="63" transform="translate(829.47 1044.01) rotate(-90)"/><rect class="cls-1" x="772.64" y="113.47" width="69.39" height="63" transform="translate(662.37 952.3) rotate(-90)"/><path class="cls-1" d="M968.24,225.53h-63c0,42-66.4,42-66.4,0V179.66h-63v45.87C775.84,351.53,968.24,351.53,968.24,225.53Z"/></g></g></svg>